<?xml version="1.0" standalone="no"?>
<!DOCTYPE svg PUBLIC "-//W3C//DTD SVG 20010904//EN"
 "http://www.w3.org/TR/2001/REC-SVG-20010904/DTD/svg10.dtd">
<svg version="1.0" xmlns="http://www.w3.org/2000/svg"
 width="180.000000pt" height="180.000000pt" viewBox="0 0 180.000000 180.000000"
 preserveAspectRatio="xMidYMid meet">

<g transform="translate(0.000000,180.000000) scale(0.100000,-0.100000)"
fill="#000000" stroke="none">
<path d="M686 1604 c-59 -60 -14 -164 71 -164 55 0 93 40 93 99 0 59 -33 91
-93 91 -34 0 -50 -6 -71 -26z"/>
<path d="M439 1461 c-76 -77 5 -199 104 -157 43 17 57 41 57 94 0 33 -6 45
-31 66 -43 36 -91 35 -130 -3z"/>
<path d="M939 1461 c-51 -51 -37 -130 28 -157 42 -18 94 -5 118 29 43 62 -5
157 -80 157 -27 0 -44 -8 -66 -29z"/>
<path d="M439 1171 c-38 -39 -39 -87 -3 -130 22 -26 33 -31 70 -31 63 0 94 32
94 95 0 37 -5 51 -26 70 -39 36 -96 34 -135 -4z"/>
<path d="M937 1172 c-61 -64 -19 -162 68 -162 58 0 95 36 95 92 0 87 -104 132
-163 70z"/>
<path d="M714 1050 c-47 -19 -54 -45 -54 -193 l0 -139 29 -29 c39 -38 87 -39
130 -3 l31 26 0 145 0 145 -29 29 c-30 30 -65 36 -107 19z"/>
<path d="M140 495 c0 -22 4 -25 40 -25 l40 0 0 -150 0 -150 30 0 30 0 0 150 0
150 40 0 c36 0 40 3 40 25 l0 25 -110 0 -110 0 0 -25z"/>
<path d="M1490 345 l0 -175 25 0 c25 0 25 1 25 86 0 92 10 124 39 124 26 0 31
-19 31 -121 0 -89 0 -89 25 -89 l26 0 -3 117 c-3 117 -3 118 -29 127 -19 6
-35 4 -58 -7 l-31 -15 0 64 c0 62 -1 64 -25 64 l-25 0 0 -175z"/>
<path d="M958 466 c-20 -7 -28 -17 -28 -33 0 -14 -6 -23 -15 -23 -8 0 -15 -7
-15 -15 0 -8 7 -15 15 -15 12 0 15 -17 15 -93 0 -106 6 -117 62 -117 31 0 38
4 38 20 0 13 -7 20 -20 20 -18 0 -20 7 -20 85 0 69 3 85 15 85 8 0 15 7 15 15
0 8 -6 15 -14 15 -9 0 -16 12 -18 33 -3 31 -4 32 -30 23z"/>
<path d="M428 406 c-16 -8 -28 -11 -28 -5 0 5 -11 9 -25 9 l-25 0 0 -120 0
-120 25 0 c24 0 25 2 25 69 0 86 12 118 45 127 18 4 25 13 25 30 0 28 -5 29
-42 10z"/>
<path d="M533 410 c-33 -14 -43 -42 -43 -122 0 -99 13 -118 84 -118 57 0 70 8
81 53 6 24 4 27 -17 27 -17 0 -29 -8 -36 -25 -21 -45 -66 -21 -60 32 3 27 6
28 62 31 l58 3 -5 46 c-2 25 -11 51 -19 59 -18 19 -77 26 -105 14z m67 -49
c17 -32 12 -41 -25 -41 -27 0 -35 4 -35 18 0 39 42 55 60 23z"/>
<path d="M753 410 c-42 -17 -56 -53 -51 -136 4 -90 16 -104 89 -104 38 0 51 5
63 22 9 12 16 30 16 40 0 27 -43 23 -55 -4 -14 -32 -46 -29 -58 5 -15 46 -4
57 58 57 l55 0 0 40 c0 69 -54 105 -117 80z m61 -46 c13 -34 7 -44 -29 -44
-39 0 -39 -1 -25 34 11 29 44 35 54 10z"/>
<path d="M1103 410 c-34 -14 -47 -49 -47 -127 -1 -91 16 -113 83 -113 52 0 63
6 80 37 17 34 13 43 -19 43 -23 0 -30 -4 -30 -20 0 -11 -7 -23 -15 -26 -24
-10 -45 15 -45 52 l0 34 61 0 62 0 -6 46 c-2 25 -11 52 -19 60 -18 19 -77 26
-105 14z m65 -62 c3 -25 0 -28 -27 -28 -31 0 -38 11 -25 45 11 27 48 14 52
-17z"/>
<path d="M1314 409 c-32 -16 -44 -52 -44 -127 0 -93 14 -112 85 -112 51 0 85
16 85 40 0 5 3 15 6 24 5 12 -1 16 -24 16 -24 0 -31 -5 -34 -22 -5 -35 -45
-37 -58 -3 -14 37 -12 118 3 139 18 24 51 17 55 -12 3 -16 10 -22 28 -22 20 0
24 5 24 29 0 16 -7 34 -15 41 -20 17 -86 22 -111 9z"/>
</g>
</svg>
